:SAMPLES-PER-SECOND 30
:FULLY-SPECIFIED
:DEGREES
49
root  34.67854177 36.49945597 -14.99822421 8.102470398 -5.810956478 3.822334766
lowerback  -7.399290085 -1.552099943 -0.9580185413
upperback  -4.151480198 -1.583879948 -2.954090118
thorax  -0.1955260038 -0.635044992 -2.618789911
lowerneck  -2.344939947 -16.18009949 -12.64210033
upperneck  8.419260025 -22.12859726 11.28279972
head  5.57145977 -10.76930046 3.718060017
lclavicle  0 -4.497500157e-015 -2.743230041e-014
lhumerus  -49.71820068 27.6529007 64.97910309
lradius  5.228657756e-007 -6.507048965e-006 31.00795555
lwrist  4.824992743e-007 -3.790274832e-007 -26.78129959
lhand  -4.410243308e-031 -36.8064003 -10.72809982
lfingers  90 7.125020027 -90
lthumb  94.78340253 -25.56628479 100.9737506
rclavicle  0 -4.497500157e-015 -2.743230041e-014
rhumerus  -58.10179901 -24.10180092 -57.10169983
rradius  -5.16745672e-007 2.214343908e-008 66.44049835
rwrist  -0.0001064338358 0.02325084992 -168.0359955
rhand  -1.7661092e-031 -1.425629973 -8.007570267
rfingers  -90 -7.125020027 -90
rthumb  -86.48991654 -7.749001757 -65.53800254
rfemur  -12.67892838 16.81996727 13.14893532
rtibia  -1.717774391 -1.135496497 21.77075577
rfoot  -0.137016356 -22.16538239 -36.32496643
rtoes  4.067129194 19.59869679 -101.9683541
lfemur  -8.150671959 -17.03654289 -20.36816788
ltibia  2.34521246 -1.402665854 15.26735592
lfoot  1.035607338 -22.93073654 38.05475616
ltoes  -8.658636908 -18.09811937 -116.1147579
50
root  34.6781633 36.49692085 -14.99847052 8.103340149 -5.858668327 3.831693649
lowerback  -7.376420021 -1.567659974 -0.9399337769
upperback  -4.167520046 -1.606780052 -2.94408989
thorax  -0.2258719951 -0.6467710137 -2.619469881
lowerneck  -2.197370052 -16.23530006 -12.68840027
upperneck  8.257120132 -22.20420074 11.27289963
head  5.509570122 -10.81840038 3.728780031
lclavicle  0 -4.497500157e-015 -2.743230041e-014
lhumerus  -49.79909897 27.62960052 64.97049713
lradius  5.228657756e-007 -6.507048965e-006 31.0322361
lwrist  4.824992743e-007 -3.790274832e-007 -26.75200081
lhand  -0 -36.78749847 -10.70429993
lfingers  90 7.125020027 -90
lthumb  94.76952115 -25.54365234 100.9513555
rclavicle  0 -4.497500157e-015 -2.743230041e-014
rhumerus  -58.27510071 -24.05289841 -56.62260056
rradius  -5.16745672e-007 2.214343908e-008 68.15139771
rwrist  -0.0001064338358 0.02334692888 -168.1569977
rhand  -1.766222577e-031 -1.566460013 -7.760399818
rfingers  -90 -7.125020027 -90
rthumb  -86.41292789 -7.96608764 -65.66095393
rfemur  -12.67518425 16.82462311 13.12754059
rtibia  -1.715125203 -1.168542743 21.75340652
rfoot  -0.1450818032 -22.22251701 -36.33243561
rtoes  4.059599355 19.60019903 -101.9459066
lfemur  -8.197875977 -16.92994118 -20.36152458
ltibia  2.321452141 -1.394609571 15.32480812
lfoot  1.04203403 -22.9887352 37.99802017
ltoes  -8.637597211 -18.10790813 -116.0470466
51
root  34.67041376 36.5033007 -14.99893609 8.082648277 -5.934952736 3.847558975
lowerback  -7.343570709 -1.630800009 -0.9532731771
upperback  -4.194220066 -1.691550016 -2.914520025
thorax  -0.2735359967 -0.6886590123 -2.586100101
lowerneck  -2.094980001 -16.23749924 -12.61919975
upperneck  8.089139938 -22.19779968 11.1718998
head  5.419970036 -10.82750034 3.707809925
lclavicle  0 -4.497500157e-015 -2.743230041e-014
lhumerus  -49.91009903 27.65589905 64.93019867
lradius  5.228657756e-007 -6.507048965e-006 31.02269745
lwrist  4.824992743e-007 -3.790274832e-007 -26.77829933
lhand  -4.412514729e-031 -36.84579849 -10.66149998
lfingers  90 7.125020027 -90
lthumb  94.78783405 -25.49959787 101.0098576
rclavicle  0 -4.497500157e-015 -2.743230041e-014
rhumerus  -58.30179977 -23.69750023 -56.24380112
rradius  -5.16745672e-007 2.214343908e-008 69.854599
rwrist  -0.0001064338358 0.02344276756 -168.3990021
rhand  -1.765730159e-031 -0.7895280123 -8.124389648
rfingers  -90 -7.125020027 -90
rthumb  -86.42189644 -7.680348469 -64.92584438
rfemur  -12.66357327 16.78629303 13.11701584
rtibia  -1.719512939 -1.170193195 21.75905037
rfoot  -0.1242476702 -22.21666527 -36.2407341
rtoes  4.081405523 19.59584058 -102.0109183
lfemur  -8.163626671 -17.1202755 -20.4203701
ltibia  2.328765631 -1.510557055 15.33699703
lfoot  1.038684845 -22.76064873 38.12381363
ltoes  -8.633167627 -18.1099652 -116.0327955
52
root  34.67477513 36.49371891 -14.99527608 8.10776329 -5.981206894 3.823590994
lowerback  -7.331970692 -1.589960098 -0.8898381591
upperback  -4.173500061 -1.643300056 -2.933259964
thorax  -0.2592400014 -0.666836977 -2.63774991
lowerneck  -1.963439941 -16.34189987 -12.85630035
upperneck  7.947869778 -22.35960007 11.41049957
head  5.428589821 -10.90929985 3.797450066
lclavicle  0 -4.497500157e-015 -2.743230041e-014
lhumerus  -49.88380051 27.67830086 64.89700317
lradius  5.228657756e-007 -6.507048965e-006 31.03302956
lwrist  4.824992743e-007 -3.790274832e-007 -26.72039986
lhand  -4.408815821e-031 -36.78160095 -10.64990044
lfingers  90 7.125020027 -90
lthumb  94.75529366 -25.49032005 100.9401268
rclavicle  0 -4.497500157e-015 -2.743230041e-014
rhumerus  -58.60340118 -23.84770012 -55.64960098
rradius  -5.16745672e-007 2.214343908e-008 71.64649963
rwrist  -0.0001064338358 0.02353836969 -168.5930023
rhand  -1.765770877e-031 -0.8801969886 -7.945320129
rfingers  -90 -7.125020027 -90
rthumb  -86.36234611 -7.837220148 -65.0037395
rfemur  -12.65983582 16.81257248 13.1079874
rtibia  -1.687888622 -1.241857767 21.69854546
rfoot  -0.1282706559 -22.38747978 -36.24895477
rtoes  4.104057644 19.59128713 -102.0784669
lfemur  -8.13266468 -16.73146248 -20.37901688
ltibia  2.371539116 -1.335869312 15.25110435
lfoot  1.076956987 -23.08146095 38.00519943
ltoes  -8.672623921 -18.09159535 -116.1597915
53
root  34.6733664 36.49431664 -14.99514692 8.133807182 -6.063157082 3.842896223
lowerback  -7.312079906 -1.624029994 -0.8797780871
upperback  -4.163040161 -1.691290021 -2.934989929
thorax  -0.261725992 -0.6917780042 -2.648080111
lowerneck  -1.868520021 -16.37809944 -12.79829979
upperneck  7.805659771 -22.40789795 11.38379955
head  5.364920139 -10.93980026 3.790210009
lclavicle  0 -4.497500157e-015 -2.743230041e-014
lhumerus  -49.9557991 27.7010994 64.82689667
lradius  5.228657756e-007 -6.507048965e-006 31.04430008
lwrist  4.824992743e-007 -3.790274832e-007 -26.68910027
lhand  -4.409943876e-031 -36.80120087 -10.67949963
lfingers  90 7.125020027 -90
lthumb  94.77070443 -25.51869475 100.9637711
rclavicle  0 -4.497500157e-015 -2.743230041e-014
rhumerus  -58.69079971 -23.62779999 -55.18909836
rradius  -5.16745672e-007 2.214343908e-008 73.30049896
rwrist  -0.0001064338358 0.0236337427 -169.0390015
rhand  -1.765817646e-031 -0.973976016 -8.001350403
rfingers  -90 -7.125020027 -90
rthumb  -86.40371753 -7.780956834 -65.09815066
rfemur  -12.74032116 16.81766129 13.07814121
rtibia  -1.700151205 -1.239990115 21.76993942
rfoot  -0.1454639882 -22.38601494 -36.19019318
rtoes  4.123615587 19.58733438 -102.1368007
lfemur  -8.13993454 -16.74063492 -20.40346718
ltibia  2.385953426 -1.345690608 15.20814991
lfoot  1.08775115 -23.03611755 38.09947586
ltoes  -8.663450655 -18.09587556 -116.1302548
54
root  34.67281071 36.49544303 -14.99536019 8.1398983 -6.143361568 3.830465555
lowerback  -7.30561018 -1.660760045 -0.9286506176
upperback  -4.167160034 -1.736009955 -2.946079969
thorax  -0.2701320052 -0.7128639817 -2.634939909
lowerneck  -1.807279944 -16.46319962 -12.73890018
upperneck  7.750130177 -22.52270126 11.32219982
head  5.337120056 -11.00059986 3.758179903
lclavicle  0 -4.497500157e-015 -2.743230041e-014
lhumerus  -50.02099991 27.72159958 64.72180176
lradius  5.228657756e-007 -6.507048965e-006 31.01930046
lwrist  4.824992743e-007 -3.790274832e-007 -26.71039963
lhand  -0 -36.79790115 -10.65089989
lfingers  90 7.125020027 -90
lthumb  94.76314173 -25.49078352 100.9576455
rclavicle  0 -4.497500157e-015 -2.743230041e-014
rhumerus  -58.74810028 -23.45899963 -54.66239929
rradius  -5.16745672e-007 2.214343908e-008 75.0447998
rwrist  -0.0001064338358 0.02372889593 -169.4750061
rhand  -1.76590321e-031 -1.12548995 -8.000379562
rfingers  -90 -7.125020027 -90
rthumb  -86.43148973 -7.772974448 -65.2455909
rfemur  -12.77516365 16.83191681 13.07370377
rtibia  -1.682031512 -1.218560696 21.80435944
rfoot  -0.1482507885 -22.38842392 -36.13108063
rtoes  4.099619752 19.5921813 -102.0652319
lfemur  -8.16223526 -16.8470459 -20.38640213
ltibia  2.343171835 -1.423321605 15.23663139
lfoot  1.051569223 -22.86554909 38.17135239
ltoes  -8.63785558 -18.1077881 -116.0478779
55
root  34.67132388 36.49695389 -14.99581224 8.147994995 -6.212129116 3.83192873
lowerback  -7.285970688 -1.688539982 -0.9550101161
upperback  -4.172379971 -1.771880031 -2.94543004
thorax  -0.2868950069 -0.7303090096 -2.621309996
lowerneck  -1.724939942 -16.5340004 -12.70219994
upperneck  7.662469864 -22.61999893 11.29640007
head  5.300700188 -11.05350018 3.744369984
lclavicle  0 -4.497500157e-015 -2.743230041e-014
lhumerus  -50.07440186 27.71680069 64.64050293
lradius  5.228657756e-007 -6.507048965e-006 30.99220085
lwrist  4.824992743e-007 -3.790274832e-007 -26.71030045
lhand  -4.408510833e-031 -36.77629852 -10.63440037
lfingers  90 7.125020027 -90
lthumb  94.74955311 -25.4753316 100.9330336
rclavicle  0 -4.497500157e-015 -2.743230041e-014
rhumerus  -58.84130096 -23.38529968 -54.03910065
rradius  -5.16745672e-007 2.214343908e-008 76.71340179
rwrist  -0.0001064338358 0.02382382937 -169.7980042
rhand  -1.76566867e-031 -0.628271997 -7.93460989
rfingers  -90 -7.125020027 -90
rthumb  -86.31026608 -7.861625935 -64.75787775
rfemur  -12.80580044 16.86216354 13.06351566
rtibia  -1.682094693 -1.220721841 21.82352066
rfoot  -0.1440590471 -22.39775085 -36.09539413
rtoes  4.076647025 19.59679376 -101.9967304
lfemur  -8.180513382 -16.85246277 -20.39048386
ltibia  2.327464819 -1.473390818 15.25702763
lfoot  1.0148592 -22.76119614 38.13036728
ltoes  -8.644385668 -18.10475305 -116.0688898
56
root  34.67050087 36.49583952 -14.99619972 8.097801208 -6.292318344 3.8562572
lowerback  -7.322430134 -1.700950027 -0.925979495
upperback  -4.19754982 -1.786329985 -2.956609964
thorax  -0.2947149873 -0.7367910147 -2.650899887
lowerneck  -1.608209968 -16.59620094 -12.68340015
upperneck  7.558670044 -22.71109962 11.31459999
head  5.2603302 -11.10309982 3.743303776
lclavicle  0 -4.497500157e-015 -2.743230041e-014
lhumerus  -50.11320114 27.74090004 64.54759979
lradius  5.228657756e-007 -6.507048965e-006 30.97500038
lwrist  4.824992743e-007 -3.790274832e-007 -26.62929916
lhand  -0 -36.79550171 -10.62930012
lfingers  90 7.125020027 -90
lthumb  94.75747152 -25.46967164 100.9531188
rclavicle  0 -4.497500157e-015 -2.743230041e-014
rhumerus  -58.91899872 -23.27179909 -53.43840027
rradius  -5.16745672e-007 2.214343908e-008 78.55729675
rwrist  -0.0001064338358 0.02391855605 -169.5460052
rhand  -1.76556477e-031 0.09148520231 -8.04294014
rfingers  -90 -7.125020027 -90
rthumb  -86.22021713 -7.807151607 -64.06399062
rfemur  -12.7736063 16.8918705 13.05168438
rtibia  -1.691969037 -1.230905175 21.84604263
rfoot  -0.142108202 -22.42417717 -36.04468155
rtoes  4.073877005 19.59734809 -101.9884716
lfemur  -8.085935593 -16.80935669 -20.46567726
ltibia  2.367596149 -1.513151407 15.20163918
lfoot  0.9968890548 -22.67055321 38.1056366
ltoes  -8.63785558 -18.1077881 -116.0478779
